<svg width="128" height="128" viewBox="0 0 128 128" fill="none" xmlns="http://www.w3.org/2000/svg">
<path d="M72.644 75.75C72.1799 75.75 71.7348 75.9344 71.4066 76.2626C71.0784 76.5908 70.894 77.0359 70.894 77.5V81.75H66.644C66.1799 81.75 65.7348 81.9344 65.4066 82.2626C65.0784 82.5908 64.894 83.0359 64.894 83.5C64.894 83.9641 65.0784 84.4092 65.4066 84.7374C65.7348 85.0656 66.1799 85.25 66.644 85.25H72.644C73.1081 85.2497 73.5531 85.0653 73.8812 84.7371C74.2093 84.409 74.3938 83.964 74.394 83.5V77.5C74.3938 77.036 74.2093 76.591 73.8812 76.2629C73.5531 75.9347 73.1081 75.7503 72.644 75.75V75.75Z" fill="#BBBBBB"/>
<path d="M60.644 81.75H54.644C54.1799 81.75 53.7348 81.9344 53.4066 82.2626C53.0784 82.5908 52.894 83.0359 52.894 83.5C52.894 83.9641 53.0784 84.4092 53.4066 84.7374C53.7348 85.0656 54.1799 85.25 54.644 85.25H60.644C61.1082 85.25 61.5533 85.0656 61.8815 84.7374C62.2097 84.4092 62.394 83.9641 62.394 83.5C62.394 83.0359 62.2097 82.5908 61.8815 82.2626C61.5533 81.9344 61.1082 81.75 60.644 81.75Z" fill="#BBBBBB"/>
<path d="M48.644 81.75H44.394V77.5C44.394 77.0359 44.2097 76.5908 43.8815 76.2626C43.5533 75.9344 43.1082 75.75 42.644 75.75C42.1799 75.75 41.7348 75.9344 41.4066 76.2626C41.0784 76.5908 40.894 77.0359 40.894 77.5V83.5C40.894 83.9641 41.0784 84.4092 41.4066 84.7374C41.7348 85.0656 42.1799 85.25 42.644 85.25H48.644C49.1082 85.25 49.5533 85.0656 49.8815 84.7374C50.2097 84.4092 50.394 83.9641 50.394 83.5C50.394 83.0359 50.2097 82.5908 49.8815 82.2626C49.5533 81.9344 49.1082 81.75 48.644 81.75Z" fill="#BBBBBB"/>
<path d="M42.644 71.1401C43.1081 71.1398 43.5531 70.9553 43.8812 70.6272C44.2093 70.2991 44.3938 69.8541 44.394 69.3901V61.2791C44.394 60.8149 44.2097 60.3698 43.8815 60.0416C43.5533 59.7134 43.1082 59.5291 42.644 59.5291C42.1799 59.5291 41.7348 59.7134 41.4066 60.0416C41.0784 60.3698 40.894 60.8149 40.894 61.2791V69.3901C40.894 69.8542 41.0784 70.2993 41.4066 70.6275C41.7348 70.9557 42.1799 71.1401 42.644 71.1401V71.1401Z" fill="#BBBBBB"/>
<path d="M48.644 45.4192H42.644C42.1799 45.4192 41.7348 45.6036 41.4066 45.9318C41.0784 46.2599 40.894 46.7051 40.894 47.1692V53.1692C40.894 53.6333 41.0784 54.0784 41.4066 54.4066C41.7348 54.7348 42.1799 54.9192 42.644 54.9192C43.1082 54.9192 43.5533 54.7348 43.8815 54.4066C44.2097 54.0784 44.394 53.6333 44.394 53.1692V48.9192H48.644C49.1082 48.9192 49.5533 48.7348 49.8815 48.4066C50.2097 48.0784 50.394 47.6333 50.394 47.1692C50.394 46.7051 50.2097 46.2599 49.8815 45.9318C49.5533 45.6036 49.1082 45.4192 48.644 45.4192V45.4192Z" fill="#BBBBBB"/>
<path d="M54.644 48.9192H60.644C61.1082 48.9192 61.5533 48.7348 61.8815 48.4066C62.2097 48.0784 62.394 47.6333 62.394 47.1692C62.394 46.7051 62.2097 46.2599 61.8815 45.9318C61.5533 45.6036 61.1082 45.4192 60.644 45.4192H54.644C54.1799 45.4192 53.7348 45.6036 53.4066 45.9318C53.0784 46.2599 52.894 46.7051 52.894 47.1692C52.894 47.6333 53.0784 48.0784 53.4066 48.4066C53.7348 48.7348 54.1799 48.9192 54.644 48.9192V48.9192Z" fill="#BBBBBB"/>
<path d="M96.856 38.9661C96.8572 37.8199 96.5183 36.6991 95.8821 35.7456C95.2459 34.7921 94.3412 34.0488 93.2823 33.6098C92.2235 33.1708 91.0582 33.0559 89.934 33.2795C88.8098 33.5031 87.7773 34.0553 86.967 34.8661L84.144 37.6891V26.5381C84.144 26.074 83.9597 25.6288 83.6315 25.3006C83.3033 24.9725 82.8582 24.7881 82.394 24.7881H43.981C43.7513 24.788 43.5239 24.8332 43.3116 24.921C43.0994 25.0089 42.9065 25.1377 42.744 25.3001L31.656 36.3881C31.4937 36.5506 31.3649 36.7434 31.277 36.9557C31.1892 37.1679 31.144 37.3954 31.144 37.6251V101.462C31.1439 101.692 31.1891 101.92 31.277 102.132C31.3649 102.344 31.4938 102.537 31.6563 102.7C31.8188 102.862 32.0118 102.991 32.2242 103.079C32.4366 103.167 32.6642 103.212 32.894 103.212H82.394C82.8582 103.212 83.3033 103.028 83.6315 102.7C83.9597 102.371 84.144 101.926 84.144 101.462V54.0781L95.159 43.0621C95.6986 42.5254 96.1265 41.8871 96.4177 41.184C96.709 40.481 96.858 39.7271 96.856 38.9661V38.9661ZM42.231 30.7661V35.8781H37.119L42.231 30.7661ZM34.644 99.7121V95.0001H80.644V99.7121H34.644ZM80.644 91.5001H34.644V39.3751H43.981C44.4452 39.3751 44.8903 39.1907 45.2185 38.8625C45.5467 38.5343 45.731 38.0892 45.731 37.6251V28.2881H80.644V41.1881L74.394 47.4381V47.1641C74.3938 46.7 74.2093 46.2551 73.8812 45.9269C73.5531 45.5988 73.1081 45.4144 72.644 45.4141H66.644C66.1799 45.4141 65.7348 45.5985 65.4066 45.9266C65.0784 46.2548 64.894 46.7 64.894 47.1641C64.894 47.6282 65.0784 48.0733 65.4066 48.4015C65.7348 48.7297 66.1799 48.9141 66.644 48.9141H70.894V50.9381L62.748 59.0831C62.5971 59.2359 62.4758 59.4152 62.39 59.6121V59.6121L57.82 69.9001C57.6765 70.2232 57.6342 70.5823 57.6988 70.9299C57.7634 71.2776 57.9317 71.5975 58.1817 71.8476C58.4317 72.0977 58.7515 72.2662 59.0991 72.3309C59.4468 72.3956 59.8058 72.3535 60.129 72.2101L70.413 67.6441C70.59 67.5652 70.7525 67.4574 70.894 67.3251V69.1001C70.894 69.5642 71.0784 70.0093 71.4066 70.3375C71.7348 70.6657 72.1799 70.8501 72.644 70.8501C73.1082 70.8501 73.5533 70.6657 73.8815 70.3375C74.2097 70.0093 74.394 69.5642 74.394 69.1001V63.8281L80.644 57.5781V91.5001ZM66.663 65.4791L62.863 67.1661L64.55 63.3661L66.663 65.4791ZM92.685 40.5871L69.7 63.5681L66.46 60.3261L89.442 37.3441C89.8789 36.927 90.4596 36.6943 91.0635 36.6943C91.6675 36.6943 92.2482 36.927 92.685 37.3441C93.1146 37.7742 93.3558 38.3572 93.3558 38.9651C93.3558 39.573 93.1146 40.156 92.685 40.5861V40.5871Z" fill="#BBBBBB"/>
</svg>
