<svg width="128" height="128" viewBox="0 0 128 128" fill="none" xmlns="http://www.w3.org/2000/svg">
<path d="M102.863 94.1911L97.909 85.2001C98.5631 84.0907 98.8403 82.7993 98.6991 81.5192C98.5579 80.2392 98.006 79.0392 97.1259 78.099C96.2458 77.1588 95.0849 76.5289 93.8169 76.3036C92.549 76.0783 91.2421 76.2696 90.092 76.8491L88.132 74.8891C88.6956 73.7713 88.8922 72.5042 88.6937 71.2683C88.4953 70.0323 87.912 68.8904 87.0268 68.0053C86.1417 67.1201 84.9998 66.5368 83.7638 66.3383C82.5278 66.1399 81.2608 66.3365 80.143 66.9001L78.2 64.9631C78.8379 63.6963 79.0036 62.2437 78.6675 60.8658C78.3313 59.4879 77.5153 58.2748 76.3657 57.4441C75.2161 56.6134 73.8081 56.2195 72.3944 56.3329C70.9806 56.4463 69.6535 57.0597 68.651 58.0631L68.595 58.1191L66.441 55.9651L69.479 52.9271C69.6416 52.7647 69.7706 52.5719 69.8586 52.3596C69.9467 52.1474 69.992 51.9199 69.992 51.6901C69.992 51.4603 69.9467 51.2328 69.8586 51.0205C69.7706 50.8082 69.6416 50.6154 69.479 50.4531L55.6 36.5691C55.2717 36.2411 54.8266 36.0569 54.3625 36.0569C53.8984 36.0569 53.4533 36.2411 53.125 36.5691L50.087 39.6071L48.807 38.3271C49.3899 37.2151 49.6025 35.9461 49.4136 34.7049C49.2247 33.4637 48.6443 32.3153 47.757 31.4271V31.4271C46.9876 30.657 46.0197 30.1155 44.961 29.8625C43.9022 29.6096 42.794 29.6552 41.7596 29.9943C40.7253 30.3334 39.8052 30.9527 39.1017 31.7834C38.3982 32.6141 37.9388 33.6236 37.7746 34.6997C37.6104 35.7758 37.7479 36.8763 38.1717 37.879C38.5955 38.8817 39.289 39.7472 40.1753 40.3793C41.0615 41.0114 42.1056 41.3854 43.1916 41.4597C44.2776 41.534 45.363 41.3056 46.327 40.8001L47.608 42.0811L28.176 61.5131C26.0063 63.6827 24.7873 66.6253 24.7872 69.6937C24.7871 72.7621 26.0059 75.7048 28.1755 77.8746C30.3451 80.0443 33.2878 81.2633 36.3561 81.2634C39.4245 81.2635 42.3673 80.0447 44.537 77.8751L63.969 58.4431L66.123 60.6001L62.98 63.7391C61.9758 64.7412 61.3617 66.0685 61.2479 67.4827C61.134 68.8968 61.528 70.3052 62.3589 71.4551C63.1899 72.605 64.4035 73.421 65.7819 73.7568C67.1603 74.0925 68.6133 73.926 69.88 73.2871L71.84 75.2471C71.2759 76.3647 71.0789 77.6319 71.2771 78.868C71.4753 80.1041 72.0585 81.2462 72.9437 82.1315C73.8289 83.0168 74.9709 83.6002 76.207 83.7985C77.4431 83.9968 78.7103 83.8 79.828 83.2361L81.77 85.1771C81.1897 86.3272 80.9977 87.6344 81.2228 88.9028C81.4478 90.1712 82.0777 91.3325 83.0182 92.2128C83.9587 93.0932 85.1591 93.6451 86.4395 93.7859C87.72 93.9268 89.0117 93.649 90.121 92.9941L99.108 97.9491C99.6331 98.2387 100.238 98.3499 100.832 98.2659C101.426 98.1818 101.976 97.9071 102.4 97.483C102.824 97.059 103.099 96.5086 103.183 95.9149C103.267 95.3211 103.156 94.7162 102.866 94.1911H102.863ZM41.9 37.2761C41.4523 36.8284 41.2008 36.2212 41.2008 35.5881C41.2008 34.955 41.4523 34.3478 41.9 33.9001C42.3477 33.4524 42.9549 33.2009 43.588 33.2009C44.2211 33.2009 44.8283 33.4524 45.276 33.9001V33.9001C45.4978 34.1216 45.6737 34.3846 45.7938 34.6742C45.9138 34.9637 45.9756 35.2741 45.9756 35.5876C45.9756 35.901 45.9138 36.2114 45.7938 36.501C45.6737 36.7905 45.4978 37.0536 45.276 37.2751C44.8216 37.7097 44.217 37.9523 43.5882 37.9525C42.9594 37.9527 42.3547 37.7104 41.9 37.2761V37.2761ZM54.356 40.2821L65.77 51.6931L59.5 57.9611L48.089 46.5501L54.356 40.2821ZM42.062 75.4001C40.5487 76.9133 38.4962 77.7633 36.3561 77.7632C34.2161 77.7631 32.1637 76.9129 30.6505 75.3996C29.1373 73.8862 28.2873 71.8338 28.2873 69.6937C28.2874 67.5537 29.1377 65.5013 30.651 63.9881L45.614 49.0251L57.025 60.4371L42.062 75.4001ZM84.026 82.4871L82.515 80.9761L85.891 77.6001L87.4 79.1121L84.026 82.4871ZM74.078 72.5391L72.567 71.0281L75.943 67.6531L77.454 69.1641L74.078 72.5391ZM65.455 69.7001C64.9933 69.2371 64.7341 68.6099 64.7341 67.9561C64.7341 67.3022 64.9933 66.6751 65.455 66.2121L69.832 61.8351L71.123 60.5441C71.3508 60.3095 71.623 60.1226 71.9237 59.9941C72.2243 59.8657 72.5476 59.7983 72.8745 59.7959C73.2015 59.7935 73.5257 59.8561 73.8282 59.9801C74.1308 60.1041 74.4057 60.287 74.6369 60.5182C74.8681 60.7493 75.0511 61.0242 75.1752 61.3267C75.2993 61.6292 75.362 61.9534 75.3597 62.2803C75.3573 62.6073 75.2901 62.9305 75.1617 63.2313C75.0333 63.532 74.8465 63.8042 74.612 64.0321L68.943 69.7001C68.48 70.1617 67.8528 70.421 67.199 70.421C66.5452 70.421 65.918 70.1617 65.455 69.7001ZM75.4 79.6511C74.9383 79.1881 74.6791 78.5609 74.6791 77.9071C74.6791 77.2532 74.9383 76.6261 75.4 76.1631L81.074 70.4891C81.3019 70.2546 81.5741 70.0677 81.8748 69.9394C82.1755 69.811 82.4988 69.7437 82.8257 69.7414C83.1527 69.7391 83.4769 69.8018 83.7794 69.9259C84.0819 70.05 84.3567 70.2329 84.5879 70.4642C84.8191 70.6954 85.002 70.9703 85.126 71.2728C85.25 71.5754 85.3126 71.8996 85.3102 72.2265C85.3078 72.5535 85.2404 72.8767 85.1119 73.1774C84.9835 73.4781 84.7966 73.7503 84.562 73.9781L78.889 79.6511C78.426 80.113 77.7986 80.3725 77.1445 80.3725C76.4904 80.3725 75.863 80.113 75.4 79.6511V79.6511ZM85.35 89.5991C85.1208 89.3701 84.939 89.0983 84.8149 88.799C84.6909 88.4998 84.627 88.179 84.627 87.8551C84.627 87.5311 84.6909 87.2104 84.8149 86.9111C84.939 86.6119 85.1208 86.34 85.35 86.1111L91.022 80.4381C91.4868 79.9864 92.1107 79.7358 92.7588 79.7404C93.4069 79.745 94.0271 80.0044 94.4855 80.4626C94.9438 80.9208 95.2034 81.541 95.2082 82.1891C95.213 82.8372 94.9625 83.4611 94.511 83.9261L88.841 89.6001C88.3712 90.0488 87.7466 90.2991 87.097 90.2991C86.4474 90.2991 85.8228 90.0488 85.353 89.6001L85.35 89.5991ZM92.87 90.5161L95.428 87.9581L98.571 93.6581L92.87 90.5161Z" fill="#BBBBBB"/>
</svg>
