<svg width="128" height="128" viewBox="0 0 128 128" fill="none" xmlns="http://www.w3.org/2000/svg">
<path d="M103 47.9841L92.955 29.6351C92.8045 29.3595 92.5825 29.1295 92.3124 28.9693C92.0423 28.8092 91.734 28.7248 91.42 28.7251H36.581C36.2668 28.725 35.9584 28.8094 35.6882 28.9695C35.4179 29.1296 35.1957 29.3595 35.0449 29.6351L25 47.9841C24.8543 48.2508 24.7805 48.5507 24.7858 48.8546C24.791 49.1584 24.8752 49.4556 25.03 49.7171C25.065 49.7751 62.611 98.5931 62.611 98.5931C62.7745 98.8054 62.9846 98.9773 63.2251 99.0956C63.4656 99.2138 63.73 99.2753 63.998 99.2753C64.2659 99.2753 64.5303 99.2138 64.7708 99.0956C65.0113 98.9773 65.2214 98.8054 65.385 98.5931C65.385 98.5931 102.931 49.7771 102.967 49.7171C103.122 49.4559 103.207 49.1588 103.213 48.855C103.218 48.5511 103.145 48.251 103 47.9841V47.9841ZM78.271 50.5741L64 92.1361L49.732 50.5741H78.271ZM51.245 47.0741L64 33.0731L76.757 47.0731L51.245 47.0741ZM67.9649 32.2251H88.374L80.4079 45.8841L67.9649 32.2251ZM47.592 45.8841L39.627 32.2251H60.0379L47.592 45.8841ZM58.879 88.0001L30.092 50.5741H46.031L58.879 88.0001ZM81.969 50.5761H97.909L69.121 88.0001L81.969 50.5761ZM98.51 47.0761H83.7659L91.372 34.0331L98.51 47.0761ZM36.629 34.0321L44.234 47.0741H29.49L36.629 34.0321Z" fill="#BBBBBB"/>
</svg>
