<svg width="128" height="128" viewBox="0 0 128 128" fill="none" xmlns="http://www.w3.org/2000/svg">
<path d="M100.489 70.7481C99.621 69.9705 98.5992 69.3842 97.4899 69.0273C96.3805 68.6703 95.2086 68.5506 94.05 68.6761C88.2078 69.1886 82.3327 69.2036 76.488 68.7211C69.475 68.3211 62.828 67.9451 56.131 69.8131C55.274 68.7535 54.2904 67.8031 53.202 66.9831C56.1403 65.0972 58.5494 62.4935 60.2019 59.4179C61.8543 56.3422 62.6955 52.8961 62.646 49.4051C62.646 38.2781 54.339 29.2271 44.128 29.2271C34.149 29.2271 27.928 35.9151 25.636 49.1051C23.854 59.3631 24.19 82.8781 33.018 93.3721C34.3366 95.0585 36.0229 96.4216 37.9482 97.3574C39.8736 98.2932 41.9872 98.7771 44.128 98.7721C58.708 98.7721 86.589 88.8281 97.899 84.5521C99.2173 84.0524 100.385 83.2222 101.29 82.1411C102.195 81.0601 102.807 79.7646 103.067 78.3789C103.327 76.9933 103.227 75.5641 102.775 74.2285C102.324 72.8929 101.536 71.6957 100.489 70.7521V70.7481ZM96.662 81.2791C85.531 85.4871 58.131 95.2731 44.128 95.2731C42.498 95.2771 40.8892 94.9043 39.4272 94.1837C37.9652 93.4631 36.6896 92.4143 35.7 91.1191C27.713 81.6191 27.457 59.0991 29.088 49.7041C31.1 38.1221 35.877 32.7271 44.128 32.7271C52.409 32.7271 59.146 40.2081 59.146 49.4051C59.146 56.5571 55.039 62.9051 48.925 65.1951C48.6007 65.3172 48.32 65.533 48.1184 65.8149C47.9169 66.0968 47.8035 66.4322 47.7928 66.7786C47.7821 67.125 47.8745 67.4668 48.0582 67.7606C48.242 68.0544 48.5089 68.2871 48.825 68.4291C50.9276 69.4013 52.7279 70.9245 54.035 72.8371C54.2484 73.1435 54.5542 73.3736 54.9078 73.4938C55.2613 73.614 55.644 73.6179 56 73.5051C62.485 71.4301 68.882 71.794 76.291 72.215C82.3266 72.7137 88.3938 72.6939 94.426 72.1561C95.0965 72.0831 95.7749 72.1522 96.4169 72.359C97.0589 72.5657 97.6501 72.9055 98.152 73.3561C98.646 73.795 99.0407 74.3342 99.3099 74.9377C99.5791 75.5412 99.7165 76.1952 99.713 76.8561C99.7101 77.8151 99.4172 78.7508 98.8727 79.5402C98.3281 80.3296 97.5575 80.9358 96.662 81.2791V81.2791Z" fill="#BBBBBB"/>
<path d="M49.712 59.2C49.9669 59.2002 50.2188 59.1447 50.4501 59.0373C50.6813 58.9299 50.8862 58.7733 51.0506 58.5784C51.2149 58.3835 51.3346 58.155 51.4014 57.9089C51.4681 57.6629 51.4803 57.4052 51.437 57.154L50.481 51.581L54.531 47.633C54.7648 47.4051 54.9302 47.1162 55.0085 46.7992C55.0868 46.4822 55.0747 46.1496 54.9738 45.839C54.8729 45.5284 54.6871 45.2523 54.4374 45.0418C54.1877 44.8313 53.8842 44.6949 53.561 44.648L47.961 43.835L45.461 38.764C45.3163 38.4714 45.0926 38.225 44.8153 38.0528C44.5379 37.8806 44.218 37.7893 43.8915 37.7893C43.565 37.7893 43.2451 37.8806 42.9677 38.0528C42.6904 38.225 42.4667 38.4714 42.322 38.764L39.822 43.835L34.222 44.648C33.8987 44.6948 33.595 44.8311 33.3452 45.0415C33.0954 45.2519 32.9095 45.528 32.8085 45.8386C32.7074 46.1492 32.6953 46.4819 32.7735 46.799C32.8517 47.1161 33.0171 47.405 33.251 47.633L37.301 51.581L36.345 57.154C36.2891 57.4763 36.3247 57.8078 36.4478 58.1109C36.5708 58.414 36.7763 58.6766 37.041 58.8688C37.3057 59.061 37.6189 59.1752 37.9452 59.1984C38.2715 59.2216 38.5978 59.1528 38.887 59L43.893 56.368L48.9 59C49.1506 59.1311 49.4292 59.1997 49.712 59.2V59.2ZM44.707 52.841C44.4558 52.709 44.1763 52.64 43.8925 52.64C43.6087 52.64 43.3292 52.709 43.078 52.841L40.4 54.248L40.912 51.263C40.9605 50.9836 40.9403 50.6966 40.8532 50.4268C40.7661 50.1569 40.6147 49.9123 40.412 49.714L38.237 47.6L41.237 47.165C41.5179 47.1243 41.7847 47.0157 42.0144 46.8488C42.244 46.6819 42.4295 46.4616 42.555 46.207L43.896 43.491L45.236 46.207C45.3616 46.4615 45.5472 46.6817 45.7768 46.8486C46.0064 47.0155 46.2731 47.1241 46.554 47.165L49.554 47.6L47.384 49.715C47.1815 49.9135 47.0303 50.1581 46.9432 50.4279C46.8561 50.6977 46.8358 50.9846 46.884 51.264L47.396 54.249L44.707 52.841Z" fill="#BBBBBB"/>
</svg>
