<svg width="55" height="10" viewBox="0 0 55 10" fill="none" xmlns="http://www.w3.org/2000/svg">
<path d="M5.80664 0.287109V0.861328H3.69727V9H2.41406V0.861328H0.287109V0.287109H5.80664ZM8.55117 3.87891C8.36367 3.87891 8.19961 3.88477 8.05898 3.89648C7.92227 3.9082 7.79727 3.92383 7.68398 3.94336C7.5707 3.96289 7.46523 3.98633 7.36758 4.01367C7.26992 4.03711 7.17227 4.0625 7.07461 4.08984L6.93398 3.70898C7.26211 3.58789 7.60391 3.50195 7.95937 3.45117C8.31875 3.39648 8.65859 3.36914 8.97891 3.36914C9.38906 3.36914 9.725 3.39062 9.98672 3.43359C10.2523 3.47656 10.4594 3.54883 10.6078 3.65039C10.7562 3.74805 10.8578 3.88086 10.9125 4.04883C10.9711 4.21289 11.0004 4.41992 11.0004 4.66992V9H9.07852C8.55508 9 8.10781 8.94531 7.73672 8.83594C7.36953 8.72656 7.06875 8.58008 6.83437 8.39648C6.6 8.20898 6.42812 7.99609 6.31875 7.75781C6.20937 7.51562 6.15469 7.26172 6.15469 6.99609C6.15469 6.66797 6.20547 6.37891 6.30703 6.12891C6.4125 5.87891 6.56289 5.66992 6.7582 5.50195C6.95352 5.33008 7.1918 5.20117 7.47305 5.11523C7.7543 5.02539 8.07461 4.98047 8.43398 4.98047C8.6293 4.98047 8.85 5.01367 9.09609 5.08008C9.34609 5.14648 9.58437 5.24609 9.81094 5.37891V4.64648C9.81094 4.55664 9.80117 4.4668 9.78164 4.37695C9.76211 4.2832 9.71133 4.20117 9.6293 4.13086C9.54727 4.05664 9.42031 3.99609 9.24844 3.94922C9.08047 3.90234 8.84805 3.87891 8.55117 3.87891ZM9.81094 8.51953V5.80664C9.62344 5.69336 9.42812 5.60938 9.225 5.55469C9.02187 5.5 8.79727 5.47266 8.55117 5.47266C8.35586 5.47266 8.18203 5.50781 8.02969 5.57812C7.88125 5.64844 7.75625 5.74805 7.65469 5.87695C7.55312 6.00586 7.475 6.16016 7.42031 6.33984C7.36953 6.51953 7.34414 6.71875 7.34414 6.9375C7.34414 7 7.34609 7.08203 7.35 7.18359C7.35781 7.28516 7.37734 7.39453 7.40859 7.51172C7.44375 7.62891 7.49453 7.74805 7.56094 7.86914C7.63125 7.98633 7.72891 8.09375 7.85391 8.19141C7.97891 8.28906 8.13711 8.36914 8.32852 8.43164C8.51992 8.49023 8.7543 8.51953 9.03164 8.51953H9.81094ZM15.3094 4.00781H14.5184V9H13.3934V4.00781H12.6316V3.48047H13.3934V1.68164L14.5184 1.3418V3.48047H15.3094V4.00781ZM19.1203 4.00781H18.3293V9H17.2043V4.00781H16.4426V3.48047H17.2043V1.68164L18.3293 1.3418V3.48047H19.1203V4.00781ZM23.1656 3.36914C23.568 3.36914 23.9449 3.44531 24.2965 3.59766C24.648 3.74609 24.9527 3.95117 25.2105 4.21289C25.4723 4.4707 25.6773 4.77539 25.8258 5.12695C25.9742 5.47461 26.0484 5.8457 26.0484 6.24023C26.0484 6.63867 25.9742 7.01367 25.8258 7.36523C25.6773 7.71289 25.4723 8.01758 25.2105 8.2793C24.9527 8.53711 24.648 8.74219 24.2965 8.89453C23.9449 9.04297 23.568 9.11719 23.1656 9.11719C22.7711 9.11719 22.4 9.04297 22.0523 8.89453C21.7086 8.74219 21.4078 8.53711 21.15 8.2793C20.8922 8.01758 20.6871 7.71289 20.5348 7.36523C20.3863 7.01367 20.3121 6.63867 20.3121 6.24023C20.3121 5.8457 20.3863 5.47461 20.5348 5.12695C20.6871 4.77539 20.8922 4.4707 21.15 4.21289C21.4078 3.95117 21.7086 3.74609 22.0523 3.59766C22.4 3.44531 22.7711 3.36914 23.1656 3.36914ZM23.1539 3.90234C22.8492 3.90234 22.5914 3.96094 22.3805 4.07812C22.1734 4.19531 22.0055 4.35938 21.8766 4.57031C21.7477 4.78125 21.6539 5.03125 21.5953 5.32031C21.5406 5.60938 21.5133 5.92383 21.5133 6.26367C21.5133 6.59961 21.5426 6.91016 21.6012 7.19531C21.6598 7.48047 21.7535 7.72852 21.8824 7.93945C22.0113 8.14648 22.1793 8.30859 22.3863 8.42578C22.5973 8.54297 22.8531 8.60156 23.1539 8.60156C23.4547 8.60156 23.7105 8.54297 23.9215 8.42578C24.1324 8.30859 24.3043 8.14648 24.4371 7.93945C24.5738 7.72852 24.6715 7.48047 24.7301 7.19531C24.7926 6.91016 24.8238 6.59961 24.8238 6.26367C24.8238 5.92383 24.7926 5.60938 24.7301 5.32031C24.6715 5.03125 24.5738 4.78125 24.4371 4.57031C24.3043 4.35938 24.1324 4.19531 23.9215 4.07812C23.7105 3.96094 23.4547 3.90234 23.1539 3.90234ZM30.3164 3.36914C30.7188 3.36914 31.0957 3.44531 31.4473 3.59766C31.7988 3.74609 32.1035 3.95117 32.3613 4.21289C32.623 4.4707 32.8281 4.77539 32.9766 5.12695C33.125 5.47461 33.1992 5.8457 33.1992 6.24023C33.1992 6.63867 33.125 7.01367 32.9766 7.36523C32.8281 7.71289 32.623 8.01758 32.3613 8.2793C32.1035 8.53711 31.7988 8.74219 31.4473 8.89453C31.0957 9.04297 30.7188 9.11719 30.3164 9.11719C29.9219 9.11719 29.5508 9.04297 29.2031 8.89453C28.8594 8.74219 28.5586 8.53711 28.3008 8.2793C28.043 8.01758 27.8379 7.71289 27.6855 7.36523C27.5371 7.01367 27.4629 6.63867 27.4629 6.24023C27.4629 5.8457 27.5371 5.47461 27.6855 5.12695C27.8379 4.77539 28.043 4.4707 28.3008 4.21289C28.5586 3.95117 28.8594 3.74609 29.2031 3.59766C29.5508 3.44531 29.9219 3.36914 30.3164 3.36914ZM30.3047 3.90234C30 3.90234 29.7422 3.96094 29.5312 4.07812C29.3242 4.19531 29.1562 4.35938 29.0273 4.57031C28.8984 4.78125 28.8047 5.03125 28.7461 5.32031C28.6914 5.60938 28.6641 5.92383 28.6641 6.26367C28.6641 6.59961 28.6934 6.91016 28.752 7.19531C28.8105 7.48047 28.9043 7.72852 29.0332 7.93945C29.1621 8.14648 29.3301 8.30859 29.5371 8.42578C29.748 8.54297 30.0039 8.60156 30.3047 8.60156C30.6055 8.60156 30.8613 8.54297 31.0723 8.42578C31.2832 8.30859 31.4551 8.14648 31.5879 7.93945C31.7246 7.72852 31.8223 7.48047 31.8809 7.19531C31.9434 6.91016 31.9746 6.59961 31.9746 6.26367C31.9746 5.92383 31.9434 5.60938 31.8809 5.32031C31.8223 5.03125 31.7246 4.78125 31.5879 4.57031C31.4551 4.35938 31.2832 4.19531 31.0723 4.07812C30.8613 3.96094 30.6055 3.90234 30.3047 3.90234ZM40.432 0.287109V0.861328H36.3832V3.50391H40.309V4.07812H36.3832V8.42578H40.432V9H35.1V0.287109H40.432ZM43.4871 3.9375C43.7371 3.82812 43.9676 3.73828 44.1785 3.66797C44.3895 3.59375 44.5867 3.53516 44.7703 3.49219C44.9539 3.44531 45.1238 3.41406 45.2801 3.39844C45.4402 3.37891 45.5945 3.36914 45.743 3.36914C46.1102 3.36914 46.3895 3.46484 46.5809 3.65625C46.7762 3.84766 46.8738 4.15625 46.8738 4.58203V9H45.6844V4.76367C45.6844 4.67773 45.6746 4.58984 45.6551 4.5C45.6395 4.41016 45.6082 4.33008 45.5613 4.25977C45.5145 4.18945 45.45 4.13281 45.368 4.08984C45.2898 4.04297 45.1902 4.01953 45.0691 4.01953C44.8699 4.01953 44.6395 4.04492 44.3777 4.0957C44.116 4.14258 43.8191 4.24219 43.4871 4.39453V9H42.2977V3.48047H43.4871V3.9375ZM52.173 9C51.7082 9 51.298 8.96289 50.9426 8.88867C50.591 8.81445 50.2844 8.71094 50.0227 8.57812C49.7648 8.44141 49.548 8.28125 49.3723 8.09766C49.2004 7.91406 49.0617 7.71289 48.9562 7.49414C48.8508 7.27148 48.7766 7.03711 48.7336 6.79102C48.6906 6.54492 48.6691 6.29297 48.6691 6.03516C48.6691 5.65234 48.7258 5.29883 48.8391 4.97461C48.9562 4.64648 49.132 4.36523 49.3664 4.13086C49.6047 3.89258 49.9035 3.70703 50.2629 3.57422C50.6262 3.4375 51.0559 3.36914 51.552 3.36914C51.7473 3.36914 51.968 3.40234 52.2141 3.46875C52.4641 3.53516 52.7023 3.63477 52.9289 3.76758V0.287109H54.1184V9H52.173ZM49.8586 6.02344C49.8586 6.15625 49.8664 6.31055 49.882 6.48633C49.9016 6.6582 49.9387 6.83789 49.9934 7.02539C50.048 7.20898 50.1262 7.39062 50.2277 7.57031C50.3332 7.74609 50.4699 7.90625 50.6379 8.05078C50.8098 8.19141 51.0207 8.30469 51.2707 8.39062C51.5246 8.47656 51.8254 8.51953 52.173 8.51953H52.9289V4.20117C52.7414 4.08789 52.5461 4.00391 52.343 3.94922C52.1398 3.89062 51.9152 3.86133 51.6691 3.86133C51.3801 3.86133 51.1223 3.92188 50.8957 4.04297C50.673 4.16016 50.4836 4.31836 50.3273 4.51758C50.175 4.7168 50.0578 4.94727 49.9758 5.20898C49.8977 5.4668 49.8586 5.73828 49.8586 6.02344Z" fill="white"/>
</svg>
